<?xml version="1.0" encoding="iso-8859-1"?>
<!-- Generator: Adobe Illustrator 16.1.1, SVG Export Plug-In . SVG Version: 6.00 Build 0)  -->
<!DOCTYPE svg PUBLIC "-//W3C//DTD SVG 1.1//EN" "http://www.w3.org/Graphics/SVG/1.1/DTD/svg11.dtd">
<svg version="1.1" id="Layer_1" xmlns="http://www.w3.org/2000/svg" xmlns:xlink="http://www.w3.org/1999/xlink" x="0px" y="0px"
	 width="500px" height="500px" viewBox="0 0 500 500" style="enable-background:new 0 0 500 500;" xml:space="preserve">
<path style="fill:#FFFFFF;" d="M250,15.005C120.426,15.005,15.005,120.426,15.005,250S120.426,484.994,250,484.994
	S484.994,379.574,484.994,250S379.574,15.005,250,15.005z M250,455.62c-113.567,0-205.62-92.053-205.62-205.62
	S136.433,44.38,250,44.38S455.62,136.433,455.62,250S363.567,455.62,250,455.62z"/>
<path id="trash_x5F_can_3_" style="fill:#FFFFFF;" d="M277.301,132.996c17.156,0,31.201,14.038,31.201,31.21v2.216h34.851
	l23.652,11.336v22.098H133.003l-0.008-22.089l23.375-11.345h35.127v-2.216c0-17.172,14.046-31.21,31.202-31.21H277.301
	 M208.212,166.421h83.576v-2.216c0-7.655-6.848-14.495-14.487-14.495H222.7c-7.656,0-14.487,6.84-14.487,14.495V166.421
	 M341.933,208.212h0.041 M341.933,208.212l-8.358,158.792H166.425l-8.357-158.792H341.933 M291.788,350.289
	c4.618,0,8.356-3.738,8.356-8.356V233.285c0-4.615-3.738-8.357-8.356-8.357c-4.62,0-8.357,3.742-8.357,8.357v108.648
	C283.431,346.551,287.168,350.289,291.788,350.289 M250,350.289c4.619,0,8.357-3.738,8.357-8.356V233.285
	c0-4.615-3.738-8.357-8.357-8.357c-4.62,0-8.357,3.742-8.357,8.357v108.648C241.643,346.551,245.38,350.289,250,350.289
	 M208.212,350.289c4.62,0,8.358-3.738,8.358-8.356V233.285c0-4.615-3.738-8.357-8.358-8.357c-4.619,0-8.357,3.742-8.357,8.357
	v108.648C199.855,346.551,203.593,350.289,208.212,350.289 M277.301,116.281H222.7c-21.375,0-39.519,14.066-45.681,33.426h-20.648
	c-2.53,0-5.028,0.575-7.297,1.677l-23.375,11.345c-5.763,2.795-9.418,8.639-9.418,15.041l0.008,22.086
	c0.008,9.23,7.485,16.71,16.715,16.71h8.766l7.966,151.321c0.465,8.879,7.802,15.833,16.69,15.833h167.149
	c8.889,0,16.226-6.954,16.691-15.833l7.965-151.321h8.774c9.238,0,16.715-7.484,16.715-16.715v-22.094
	c0-6.431-3.689-12.292-9.492-15.074l-23.653-11.336c-2.251-1.081-4.725-1.64-7.222-1.64H322.98
	C316.819,130.347,298.676,116.281,277.301,116.281L277.301,116.281z"/>
</svg>
